<mxfile host="app.diagrams.net" modified="2024-06-14T07:23:20.545Z" agent="Mozilla/5.0 (Macintosh; Intel Mac OS X 10_15_7) AppleWebKit/537.36 (KHTML, like Gecko) Chrome/124.0.0.0 Safari/537.36" version="24.5.4" etag="D7_3mcLqPCFEOHjZG9rp" type="github">
  <diagram name="페이지-1" id="gWLkGW7tqEboVSm_o-l1">
    <mxGraphModel>
      <root>
        <mxCell id="0" />
        <mxCell id="1" parent="0" />
      </root>
    </mxGraphModel>
  </diagram>
</mxfile>
